<svg id="visual" viewBox="0 0 900 600" width="900" height="600" xmlns="http://www.w3.org/2000/svg" xmlns:xlink="http://www.w3.org/1999/xlink" version="1.1"><rect x="0" y="0" width="900" height="600" fill="#f9fcff"></rect><g transform="translate(451.4349792601964 281.67684577373353)"><path d="M198.9 -265.2C251.7 -235.5 284.2 -169.2 304.6 -100.4C324.9 -31.6 333.2 39.7 316 105.8C298.7 171.8 256.1 232.8 199.1 272.1C142.2 311.4 71.1 329.2 6 321C-59.2 312.8 -118.3 278.5 -169.7 237.4C-221.1 196.3 -264.6 148.2 -294.5 88.2C-324.3 28.1 -340.5 -43.9 -316.8 -98.7C-293.2 -153.6 -229.8 -191.3 -170.3 -218.8C-110.9 -246.4 -55.4 -263.8 8.8 -276C73.1 -288.1 146.2 -294.9 198.9 -265.2" fill="#d2e4ff"></path></g></svg>