<svg id="visual" viewBox="0 0 900 600" width="900" height="600" xmlns="http://www.w3.org/2000/svg" xmlns:xlink="http://www.w3.org/1999/xlink" version="1.1"><rect x="0" y="0" width="900" height="600" fill="#eff8ff"></rect><g transform="translate(960.6877725337133 183.32568015968502)"><path d="M358.1 -564.4C444.6 -430 482 -299.4 535 -166.6C588.1 -33.9 656.9 100.9 617.2 193.7C577.6 286.4 429.6 336.9 308.6 380.5C187.7 424 93.8 460.5 11.1 445.2C-71.6 429.9 -143.3 362.9 -242.5 312.3C-341.7 261.7 -468.5 227.6 -579.7 130.5C-690.8 33.5 -786.2 -126.5 -737.2 -227.9C-688.3 -329.3 -494.9 -372.2 -348 -486.9C-201 -601.7 -100.5 -788.3 17.6 -812.6C135.8 -836.9 271.6 -698.8 358.1 -564.4" fill="#b9d5ff"></path></g></svg>