<svg id="visual" viewBox="0 0 900 600" width="900" height="600" xmlns="http://www.w3.org/2000/svg" xmlns:xlink="http://www.w3.org/1999/xlink" version="1.1"><rect x="0" y="0" width="900" height="600" fill="#cde9ff"></rect><path d="M0 406L129 388L257 401L386 418L514 353L643 443L771 418L900 352L900 601L771 601L643 601L514 601L386 601L257 601L129 601L0 601Z" fill="#87b6fd"></path><path d="M0 453L129 422L257 457L386 434L514 405L643 424L771 408L900 421L900 601L771 601L643 601L514 601L386 601L257 601L129 601L0 601Z" fill="#609aff"></path><path d="M0 473L129 493L257 455L386 437L514 492L643 445L771 452L900 504L900 601L771 601L643 601L514 601L386 601L257 601L129 601L0 601Z" fill="#427bff"></path><path d="M0 518L129 529L257 524L386 490L514 524L643 515L771 542L900 484L900 601L771 601L643 601L514 601L386 601L257 601L129 601L0 601Z" fill="#4256ff"></path><path d="M0 534L129 565L257 554L386 560L514 540L643 533L771 524L900 547L900 601L771 601L643 601L514 601L386 601L257 601L129 601L0 601Z" fill="#6600ff"></path></svg>