<svg id="visual" viewBox="0 0 900 600" width="900" height="600" xmlns="http://www.w3.org/2000/svg" xmlns:xlink="http://www.w3.org/1999/xlink" version="1.1"><path d="M0 147L25 163.7C50 180.3 100 213.7 150 231.2C200 248.7 250 250.3 300 234.3C350 218.3 400 184.7 450 179.8C500 175 550 199 600 201.7C650 204.3 700 185.7 750 185.7C800 185.7 850 204.3 875 213.7L900 223L900 0L875 0C850 0 800 0 750 0C700 0 650 0 600 0C550 0 500 0 450 0C400 0 350 0 300 0C250 0 200 0 150 0C100 0 50 0 25 0L0 0Z" fill="#6600FF" stroke-linecap="round" stroke-linejoin="miter"></path></svg>