<svg id="visual" viewBox="0 0 900 600" width="900" height="600" xmlns="http://www.w3.org/2000/svg" xmlns:xlink="http://www.w3.org/1999/xlink" version="1.1"><path d="M0 251L21.5 239.7C43 228.3 86 205.7 128.8 220.2C171.7 234.7 214.3 286.3 257.2 302.5C300 318.7 343 299.3 385.8 274.2C428.7 249 471.3 218 514.2 215C557 212 600 237 642.8 253.8C685.7 270.7 728.3 279.3 771.2 276.7C814 274 857 260 878.5 253L900 246L900 0L878.5 0C857 0 814 0 771.2 0C728.3 0 685.7 0 642.8 0C600 0 557 0 514.2 0C471.3 0 428.7 0 385.8 0C343 0 300 0 257.2 0C214.3 0 171.7 0 128.8 0C86 0 43 0 21.5 0L0 0Z" fill="#6600FF" stroke-linecap="round" stroke-linejoin="miter"></path></svg>