<svg id="visual" viewBox="0 0 900 600" width="900" height="600" xmlns="http://www.w3.org/2000/svg" xmlns:xlink="http://www.w3.org/1999/xlink" version="1.1"><path d="M836 600L830 590.8C824 581.7 812 563.3 800 545.2C788 527 776 509 774.5 490.8C773 472.7 782 454.3 783.5 436.2C785 418 779 400 774.5 381.8C770 363.7 767 345.3 771.5 327.2C776 309 788 291 794 272.8C800 254.7 800 236.3 794 218.2C788 200 776 182 782 163.8C788 145.7 812 127.3 822.5 109.2C833 91 830 73 824 54.8C818 36.7 809 18.3 804.5 9.2L800 0L900 0L900 9.2C900 18.3 900 36.7 900 54.8C900 73 900 91 900 109.2C900 127.3 900 145.7 900 163.8C900 182 900 200 900 218.2C900 236.3 900 254.7 900 272.8C900 291 900 309 900 327.2C900 345.3 900 363.7 900 381.8C900 400 900 418 900 436.2C900 454.3 900 472.7 900 490.8C900 509 900 527 900 545.2C900 563.3 900 581.7 900 590.8L900 600Z" fill="#004cbb"></path><path d="M431 600L426.5 590.8C422 581.7 413 563.3 431 545.2C449 527 494 509 530 490.8C566 472.7 593 454.3 612.5 436.2C632 418 644 400 641 381.8C638 363.7 620 345.3 620 327.2C620 309 638 291 636.5 272.8C635 254.7 614 236.3 609.5 218.2C605 200 617 182 609.5 163.8C602 145.7 575 127.3 542 109.2C509 91 470 73 480.5 54.8C491 36.7 551 18.3 581 9.2L611 0L801 0L805.5 9.2C810 18.3 819 36.7 825 54.8C831 73 834 91 823.5 109.2C813 127.3 789 145.7 783 163.8C777 182 789 200 795 218.2C801 236.3 801 254.7 795 272.8C789 291 777 309 772.5 327.2C768 345.3 771 363.7 775.5 381.8C780 400 786 418 784.5 436.2C783 454.3 774 472.7 775.5 490.8C777 509 789 527 801 545.2C813 563.3 825 581.7 831 590.8L837 600Z" fill="#0059dd"></path><path d="M314 600L306.5 590.8C299 581.7 284 563.3 291.5 545.2C299 527 329 509 375.5 490.8C422 472.7 485 454.3 507.5 436.2C530 418 512 400 509 381.8C506 363.7 518 345.3 531.5 327.2C545 309 560 291 542 272.8C524 254.7 473 236.3 468.5 218.2C464 200 506 182 501.5 163.8C497 145.7 446 127.3 408.5 109.2C371 91 347 73 356 54.8C365 36.7 407 18.3 428 9.2L449 0L612 0L582 9.2C552 18.3 492 36.7 481.5 54.8C471 73 510 91 543 109.2C576 127.3 603 145.7 610.5 163.8C618 182 606 200 610.5 218.2C615 236.3 636 254.7 637.5 272.8C639 291 621 309 621 327.2C621 345.3 639 363.7 642 381.8C645 400 633 418 613.5 436.2C594 454.3 567 472.7 531 490.8C495 509 450 527 432 545.2C414 563.3 423 581.7 427.5 590.8L432 600Z" fill="#0066ff"></path><path d="M89 600L93.5 590.8C98 581.7 107 563.3 111.5 545.2C116 527 116 509 138.5 490.8C161 472.7 206 454.3 216.5 436.2C227 418 203 400 191 381.8C179 363.7 179 345.3 173 327.2C167 309 155 291 161 272.8C167 254.7 191 236.3 204.5 218.2C218 200 221 182 224 163.8C227 145.7 230 127.3 213.5 109.2C197 91 161 73 150.5 54.8C140 36.7 155 18.3 162.5 9.2L170 0L450 0L429 9.2C408 18.3 366 36.7 357 54.8C348 73 372 91 409.5 109.2C447 127.3 498 145.7 502.5 163.8C507 182 465 200 469.5 218.2C474 236.3 525 254.7 543 272.8C561 291 546 309 532.5 327.2C519 345.3 507 363.7 510 381.8C513 400 531 418 508.5 436.2C486 454.3 423 472.7 376.5 490.8C330 509 300 527 292.5 545.2C285 563.3 300 581.7 307.5 590.8L315 600Z" fill="#3c80ff"></path><path d="M0 600L0 590.8C0 581.7 0 563.3 0 545.2C0 527 0 509 0 490.8C0 472.7 0 454.3 0 436.2C0 418 0 400 0 381.8C0 363.7 0 345.3 0 327.2C0 309 0 291 0 272.8C0 254.7 0 236.3 0 218.2C0 200 0 182 0 163.8C0 145.7 0 127.3 0 109.2C0 91 0 73 0 54.8C0 36.7 0 18.3 0 9.2L0 0L171 0L163.5 9.2C156 18.3 141 36.7 151.5 54.8C162 73 198 91 214.5 109.2C231 127.3 228 145.7 225 163.8C222 182 219 200 205.5 218.2C192 236.3 168 254.7 162 272.8C156 291 168 309 174 327.2C180 345.3 180 363.7 192 381.8C204 400 228 418 217.5 436.2C207 454.3 162 472.7 139.5 490.8C117 509 117 527 112.5 545.2C108 563.3 99 581.7 94.5 590.8L90 600Z" fill="#6198ff"></path></svg>