<svg id="visual" viewBox="0 0 900 600" width="900" height="600" xmlns="http://www.w3.org/2000/svg" xmlns:xlink="http://www.w3.org/1999/xlink" version="1.1"><rect x="0" y="0" width="900" height="600" fill="#7ac4fd"></rect><defs><linearGradient id="grad1_0" x1="33.3%" y1="100%" x2="100%" y2="0%"><stop offset="20%" stop-color="#6c59e5" stop-opacity="1"></stop><stop offset="80%" stop-color="#6c59e5" stop-opacity="1"></stop></linearGradient></defs><defs><linearGradient id="grad1_1" x1="33.3%" y1="100%" x2="100%" y2="0%"><stop offset="20%" stop-color="#6c59e5" stop-opacity="1"></stop><stop offset="80%" stop-color="#4d95fc" stop-opacity="1"></stop></linearGradient></defs><defs><linearGradient id="grad1_2" x1="33.3%" y1="100%" x2="100%" y2="0%"><stop offset="20%" stop-color="#7ac4fd" stop-opacity="1"></stop><stop offset="80%" stop-color="#4d95fc" stop-opacity="1"></stop></linearGradient></defs><defs><linearGradient id="grad2_0" x1="0%" y1="100%" x2="66.7%" y2="0%"><stop offset="20%" stop-color="#6c59e5" stop-opacity="1"></stop><stop offset="80%" stop-color="#6c59e5" stop-opacity="1"></stop></linearGradient></defs><defs><linearGradient id="grad2_1" x1="0%" y1="100%" x2="66.7%" y2="0%"><stop offset="20%" stop-color="#4d95fc" stop-opacity="1"></stop><stop offset="80%" stop-color="#6c59e5" stop-opacity="1"></stop></linearGradient></defs><defs><linearGradient id="grad2_2" x1="0%" y1="100%" x2="66.7%" y2="0%"><stop offset="20%" stop-color="#4d95fc" stop-opacity="1"></stop><stop offset="80%" stop-color="#7ac4fd" stop-opacity="1"></stop></linearGradient></defs><g transform="translate(900, 600)"><path d="M-324.5 0C-285.7 -28.4 -246.9 -56.9 -236.5 -98C-226.1 -139.1 -244.2 -192.9 -229.5 -229.5C-214.8 -266 -167.3 -285.4 -123.6 -298.4C-79.9 -311.4 -40 -317.9 0 -324.5L0 0Z" fill="#5baefe"></path><path d="M-216.3 0C-190.5 -19 -164.6 -37.9 -157.7 -65.3C-150.8 -92.7 -162.8 -128.6 -153 -153C-143.2 -177.4 -111.5 -190.3 -82.4 -198.9C-53.3 -207.6 -26.6 -212 0 -216.3L0 0Z" fill="#5679f4"></path><path d="M-108.2 0C-95.2 -9.5 -82.3 -19 -78.8 -32.7C-75.4 -46.4 -81.4 -64.3 -76.5 -76.5C-71.6 -88.7 -55.8 -95.1 -41.2 -99.5C-26.6 -103.8 -13.3 -106 0 -108.2L0 0Z" fill="#6c59e5"></path></g><g transform="translate(0, 0)"><path d="M324.5 0C326 48.1 327.4 96.1 299.8 124.2C272.1 152.2 215.4 160.2 181 181C146.7 201.8 134.7 235.4 108.3 261.5C81.9 287.5 40.9 306 0 324.5L0 0Z" fill="#5baefe"></path><path d="M216.3 0C217.3 32 218.3 64.1 199.9 82.8C181.4 101.5 143.6 106.8 120.7 120.7C97.8 134.5 89.8 156.9 72.2 174.3C54.6 191.7 27.3 204 0 216.3L0 0Z" fill="#5679f4"></path><path d="M108.2 0C108.7 16 109.1 32 99.9 41.4C90.7 50.7 71.8 53.4 60.3 60.3C48.9 67.3 44.9 78.5 36.1 87.2C27.3 95.8 13.6 102 0 108.2L0 0Z" fill="#6c59e5"></path></g></svg>