<svg id="visual" viewBox="0 0 900 600" width="900" height="600" xmlns="http://www.w3.org/2000/svg" xmlns:xlink="http://www.w3.org/1999/xlink" version="1.1"><rect x="0" y="0" width="900" height="600" fill="#ffffff"></rect><defs><linearGradient id="grad1_0" x1="33.3%" y1="0%" x2="100%" y2="100%"><stop offset="20%" stop-color="#79caf6" stop-opacity="1"></stop><stop offset="80%" stop-color="#79caf6" stop-opacity="1"></stop></linearGradient></defs><defs><linearGradient id="grad1_1" x1="33.3%" y1="0%" x2="100%" y2="100%"><stop offset="20%" stop-color="#79caf6" stop-opacity="1"></stop><stop offset="80%" stop-color="#ffffff" stop-opacity="1"></stop></linearGradient></defs><defs><linearGradient id="grad2_0" x1="0%" y1="0%" x2="66.7%" y2="100%"><stop offset="20%" stop-color="#79caf6" stop-opacity="1"></stop><stop offset="80%" stop-color="#79caf6" stop-opacity="1"></stop></linearGradient></defs><defs><linearGradient id="grad2_1" x1="0%" y1="0%" x2="66.7%" y2="100%"><stop offset="20%" stop-color="#ffffff" stop-opacity="1"></stop><stop offset="80%" stop-color="#79caf6" stop-opacity="1"></stop></linearGradient></defs><g transform="translate(900, 0)"><path d="M0 486.7C-60.4 474.4 -120.8 462.1 -182.9 441.6C-245.1 421.1 -309 392.4 -344.2 344.2C-379.3 296 -385.7 228.2 -404.7 167.6C-423.6 107 -455.2 53.5 -486.7 0L0 0Z" fill="#c2e4fb"></path><path d="M0 243.4C-30.2 237.2 -60.4 231.1 -91.5 220.8C-122.5 210.6 -154.5 196.2 -172.1 172.1C-189.7 148 -192.8 114.1 -202.3 83.8C-211.8 53.5 -227.6 26.7 -243.4 0L0 0Z" fill="#79caf6"></path></g><g transform="translate(0, 600)"><path d="M0 -486.7C55.6 -448.1 111.2 -409.5 155.8 -376C200.3 -342.5 233.9 -314.2 287.1 -287.1C340.3 -259.9 413.1 -233.9 449.7 -186.3C486.3 -138.6 486.5 -69.3 486.7 0L0 0Z" fill="#c2e4fb"></path><path d="M0 -243.4C27.8 -224.1 55.6 -204.7 77.9 -188C100.2 -171.3 116.9 -157.1 143.5 -143.5C170.1 -130 206.6 -117 224.8 -93.1C243.1 -69.3 243.2 -34.7 243.4 0L0 0Z" fill="#79caf6"></path></g></svg>